<svg xmlns="http://www.w3.org/2000/svg" viewBox="0 0 1200 630" role="img" aria-label="GIFor - GIF Crop, Resize, and Optimize">
  <defs>
    <linearGradient id="brand" x1="190" y1="130" x2="1010" y2="500" gradientUnits="userSpaceOnUse">
      <stop stop-color="#6c5ce7"/>
      <stop offset=".55" stop-color="#00c4cc"/>
      <stop offset="1" stop-color="#ff6b6b"/>
    </linearGradient>
    <pattern id="grid" width="32" height="32" patternUnits="userSpaceOnUse">
      <path d="M32 0H0v32" fill="none" stroke="#e3e6ee" stroke-width="1"/>
    </pattern>
    <filter id="shadow" x="-20%" y="-20%" width="140%" height="140%">
      <feDropShadow dx="0" dy="22" stdDeviation="28" flood-color="#1f2430" flood-opacity=".16"/>
    </filter>
  </defs>
  <rect width="1200" height="630" fill="#f7f7fb"/>
  <rect width="1200" height="630" fill="url(#grid)" opacity=".75"/>
  <rect x="120" y="96" width="960" height="438" rx="30" fill="#fff" filter="url(#shadow)"/>
  <rect x="120" y="96" width="960" height="70" rx="30" fill="#fbfcff"/>
  <rect x="120" y="136" width="960" height="30" fill="#fbfcff"/>
  <circle cx="168" cy="132" r="10" fill="#ff6b6b"/>
  <circle cx="200" cy="132" r="10" fill="#ffcc4d"/>
  <circle cx="232" cy="132" r="10" fill="#00c4cc"/>
  <rect x="164" y="210" width="184" height="280" rx="18" fill="#f4f6fb" stroke="#e3e6ee"/>
  <rect x="392" y="210" width="480" height="280" rx="18" fill="#eef1f7" stroke="#e3e6ee"/>
  <rect x="430" y="250" width="404" height="205" rx="16" fill="url(#brand)"/>
  <rect x="396" y="420" width="472" height="70" rx="0" fill="#fff" opacity=".82"/>
  <rect x="404" y="436" width="58" height="38" rx="8" fill="#6c5ce7"/>
  <rect x="472" y="436" width="58" height="38" rx="8" fill="#00c4cc"/>
  <rect x="540" y="436" width="58" height="38" rx="8" fill="#ff6b6b"/>
  <rect x="608" y="436" width="58" height="38" rx="8" fill="#6c5ce7" opacity=".55"/>
  <rect x="920" y="210" width="112" height="46" rx="14" fill="url(#brand)"/>
  <text x="164" y="340" fill="#1f2430" font-family="Inter, Arial, sans-serif" font-size="88" font-weight="800">GIFor</text>
  <text x="164" y="392" fill="#6d7484" font-family="Inter, Arial, sans-serif" font-size="28" font-weight="600">Crop, tune, export GIFs.</text>
  <text x="920" y="241" fill="#fff" font-family="Inter, Arial, sans-serif" font-size="18" font-weight="800">Export</text>
</svg>
